<?xml version="1.0" standalone="no"?>
<!DOCTYPE svg PUBLIC "-//W3C//DTD SVG 20010904//EN"
 "http://www.w3.org/TR/2001/REC-SVG-20010904/DTD/svg10.dtd">
<svg version="1.0" xmlns="http://www.w3.org/2000/svg"
 width="225.000000pt" height="225.000000pt" viewBox="0 0 225.000000 225.000000"
 preserveAspectRatio="xMidYMid meet">
<metadata>
Created by potrace 1.16, written by Peter Selinger 2001-2019
</metadata>
<g transform="translate(0.000000,225.000000) scale(0.100000,-0.100000)"
fill="#000000" stroke="none">
<path d="M249 1713 c-1 -5 -1 -11 0 -15 0 -4 -6 -5 -14 -2 -27 11 -16 -11 22
-41 52 -41 102 -75 112 -75 10 0 35 -81 52 -165 29 -148 123 -372 207 -490
l49 -70 79 -1 c71 0 87 -4 154 -38 64 -31 81 -36 117 -31 41 6 43 5 35 -17 -5
-13 -24 -31 -43 -40 l-34 -18 36 0 c19 0 60 7 89 16 51 15 55 15 67 -3 8 -10
12 -26 9 -37 -3 -11 5 -28 19 -42 36 -36 95 -33 184 12 83 42 148 114 181 202
29 77 24 85 -12 19 -17 -31 -51 -75 -74 -97 -37 -34 -50 -40 -88 -40 -26 0
-48 6 -56 15 -7 8 -18 15 -25 15 -18 0 -55 48 -55 71 0 17 -6 16 -57 -12 -52
-28 -65 -30 -130 -27 -65 3 -77 7 -133 46 -34 23 -69 42 -79 42 -35 0 -80 22
-96 47 -9 14 -18 46 -19 71 -2 53 -22 92 -47 92 -21 0 -41 24 -34 41 3 8 -37
79 -89 159 -52 80 -125 192 -163 250 -82 127 -119 170 -144 170 -10 0 -20 -3
-20 -7z"/>
<path d="M1015 1418 c-125 -44 -142 -208 -31 -305 70 -63 159 -65 205 -6 29
35 26 48 -11 71 -68 42 -128 40 -194 -4 l-39 -26 24 26 c50 54 162 59 219 11
l29 -24 31 44 c40 58 74 67 110 32 21 -22 27 -38 30 -89 5 -78 -20 -150 -79
-227 -44 -58 -42 -73 12 -86 25 -6 28 -3 48 49 31 82 51 180 51 245 0 45 -6
71 -27 110 -28 51 -116 151 -134 151 -5 0 -9 7 -9 15 0 11 -11 15 -39 15 -37
0 -39 -1 -45 -40 -7 -44 -54 -104 -87 -113 -19 -5 -21 -3 -15 25 3 17 6 37 6
44 0 9 8 12 28 8 37 -8 62 18 44 47 -16 25 -15 27 6 32 9 3 -10 5 -43 5 -33 0
-73 -4 -90 -10z"/>
<path d="M1766 934 c-5 -42 -2 -70 7 -95 15 -35 13 -54 -8 -79 -18 -21 -29
-159 -16 -193 9 -23 16 -27 50 -27 28 0 48 7 68 24 l28 24 -18 37 c-10 21 -22
61 -28 89 -5 28 -18 74 -29 101 -11 28 -26 79 -34 115 l-13 65 -7 -61z"/>
</g>
</svg>
