<?xml version="1.0" standalone="no"?>
<!DOCTYPE svg PUBLIC "-//W3C//DTD SVG 20010904//EN"
 "http://www.w3.org/TR/2001/REC-SVG-20010904/DTD/svg10.dtd">
<svg version="1.0" xmlns="http://www.w3.org/2000/svg"
 width="980.000000pt" height="980.000000pt" viewBox="0 0 980.000000 980.000000"
 preserveAspectRatio="xMidYMid meet">
<metadata>
Created by potrace 1.16, written by Peter Selinger 2001-2019
</metadata>
<g transform="translate(0.000000,980.000000) scale(0.100000,-0.100000)"
fill="#000000" stroke="none">
<path d="M3683 6910 c-51 -11 -141 -38 -200 -59 -140 -50 -363 -151 -370 -166
-4 -13 135 -255 191 -332 17 -23 38 -42 46 -42 8 -1 35 11 60 25 97 56 362
185 446 218 49 19 129 43 176 52 74 16 98 17 166 7 204 -30 325 -149 354 -348
9 -67 8 -93 -5 -159 -37 -180 -163 -363 -293 -427 -50 -24 -388 -75 -559 -85
-60 -4 -124 -13 -141 -21 -58 -26 -70 -96 -28 -159 77 -114 240 -281 277 -285
41 -4 218 52 455 142 85 33 159 59 166 59 28 0 153 -71 202 -114 97 -86 151
-199 161 -343 24 -337 -193 -638 -518 -717 -75 -18 -237 -21 -325 -5 -325 57
-564 264 -824 714 -57 98 -160 308 -160 324 0 6 -3 11 -7 11 -6 0 -182 -97
-191 -105 -5 -5 94 -205 171 -345 82 -149 230 -374 320 -486 134 -165 324
-322 492 -406 211 -106 416 -138 650 -103 136 21 204 40 311 90 114 53 181
102 268 196 193 209 256 582 137 818 -17 33 -29 61 -25 61 3 0 18 -8 32 -19
91 -63 230 -113 387 -136 174 -26 313 -14 475 39 41 14 78 26 82 26 5 0 9
-311 10 -691 l3 -690 210 -119 c116 -66 213 -120 218 -120 4 0 7 736 7 1635
l0 1635 265 0 c146 0 265 2 265 4 0 2 -45 96 -99 210 l-100 206 -900 0 c-496
0 -901 -3 -901 -7 0 -4 44 -99 97 -210 l96 -203 424 0 423 0 0 -569 0 -569
-37 -30 c-86 -67 -255 -144 -401 -182 -103 -26 -215 -26 -343 0 -128 26 -217
59 -359 131 -109 55 -320 192 -320 207 0 4 23 21 51 37 70 42 168 148 206 225
85 171 82 320 -13 517 -125 261 -463 539 -789 649 -109 37 -261 42 -392 14z"/>
<path d="M4814 2009 c-43 -12 -103 -68 -114 -106 l-9 -33 60 0 c33 0 59 4 59
10 0 26 41 50 85 50 56 0 85 -25 85 -74 l0 -33 -82 -7 c-144 -11 -212 -65
-212 -168 0 -84 58 -139 153 -146 50 -4 67 0 105 21 42 23 45 24 49 6 4 -16
15 -19 66 -19 l61 0 -10 26 c-6 14 -10 98 -10 188 0 148 -2 166 -22 206 -31
60 -89 90 -173 89 -33 0 -74 -5 -91 -10z m150 -265 c27 -10 22 -95 -7 -122
-48 -45 -141 -36 -153 14 -15 60 15 93 96 105 25 3 46 7 47 8 1 0 8 -2 17 -5z"/>
</g>
</svg>
